<svg width="24" height="24" viewBox="0 0 24 24" fill="none" xmlns="http://www.w3.org/2000/svg">
<path d="M12 2.3999C10.0904 2.3999 8.25906 3.15847 6.9088 4.50873C5.55853 5.859 4.79996 7.69034 4.79996 9.5999V13.9031L3.95156 14.7515C3.78379 14.9193 3.66954 15.1331 3.62326 15.3659C3.57698 15.5986 3.60075 15.8398 3.69155 16.0591C3.78235 16.2783 3.93612 16.4657 4.13341 16.5976C4.33071 16.7294 4.56266 16.7999 4.79996 16.7999H19.2C19.4373 16.7999 19.6692 16.7294 19.8665 16.5976C20.0638 16.4657 20.2176 16.2783 20.3084 16.0591C20.3992 15.8398 20.4229 15.5986 20.3767 15.3659C20.3304 15.1331 20.2161 14.9193 20.0484 14.7515L19.2 13.9031V9.5999C19.2 7.69034 18.4414 5.859 17.0911 4.50873C15.7409 3.15847 13.9095 2.3999 12 2.3999ZM12 21.5999C11.0452 21.5999 10.1295 21.2206 9.45438 20.5455C8.77925 19.8704 8.39996 18.9547 8.39996 17.9999H15.6C15.6 18.9547 15.2207 19.8704 14.5455 20.5455C13.8704 21.2206 12.9547 21.5999 12 21.5999Z" fill="#9CA3AF"/>
</svg>
