<svg width="21" height="21" viewBox="0 0 21 21" fill="none" xmlns="http://www.w3.org/2000/svg">
<g clip-path="url(#clip0_442_1370)">
<path d="M20.305 10.4307C20.305 9.75091 20.2499 9.06746 20.1323 8.39871H10.7V12.2495H16.1014C15.8773 13.4915 15.1571 14.5901 14.1025 15.2883V17.7869H17.325C19.2173 16.0452 20.305 13.4731 20.305 10.4307Z" fill="#4285F4"/>
<path d="M10.7 20.201C13.3971 20.201 15.6716 19.3155 17.3287 17.7869L14.1063 15.2883C13.2097 15.8982 12.0522 16.2436 10.7037 16.2436C8.09486 16.2436 5.88285 14.4836 5.08917 12.1172H1.76379V14.693C3.46139 18.0698 6.91904 20.201 10.7 20.201Z" fill="#34A853"/>
<path d="M5.0854 12.1172C4.66651 10.8753 4.66651 9.53042 5.0854 8.28846V5.71268H1.7637C0.345367 8.53832 0.345367 11.8674 1.7637 14.693L5.0854 12.1172Z" fill="#FBBC04"/>
<path d="M10.7 4.15837C12.1257 4.13632 13.5036 4.67279 14.5362 5.65754L17.3912 2.8025C15.5834 1.1049 13.184 0.171596 10.7 0.200991C6.91904 0.200991 3.46139 2.33217 1.76379 5.71266L5.08549 8.28844C5.8755 5.91843 8.09119 4.15837 10.7 4.15837Z" fill="#EA4335"/>
</g>
<defs>
<clipPath id="clip0_442_1370">
<rect width="20" height="20" fill="white" transform="translate(0.5 0.200317)"/>
</clipPath>
</defs>
</svg>
