<svg width="20" height="21" viewBox="0 0 20 21" fill="none" xmlns="http://www.w3.org/2000/svg">
<path d="M9 2.5C8.73478 2.5 8.48043 2.60536 8.29289 2.79289C8.10536 2.98043 8 3.23478 8 3.5C8 3.76522 8.10536 4.01957 8.29289 4.20711C8.48043 4.39464 8.73478 4.5 9 4.5H11C11.2652 4.5 11.5196 4.39464 11.7071 4.20711C11.8946 4.01957 12 3.76522 12 3.5C12 3.23478 11.8946 2.98043 11.7071 2.79289C11.5196 2.60536 11.2652 2.5 11 2.5H9Z" fill="white"/>
<path fill-rule="evenodd" clip-rule="evenodd" d="M4 5.5C4 4.96957 4.21071 4.46086 4.58579 4.08579C4.96086 3.71071 5.46957 3.5 6 3.5C6 4.29565 6.31607 5.05871 6.87868 5.62132C7.44129 6.18393 8.20435 6.5 9 6.5H11C11.7956 6.5 12.5587 6.18393 13.1213 5.62132C13.6839 5.05871 14 4.29565 14 3.5C14.5304 3.5 15.0391 3.71071 15.4142 4.08579C15.7893 4.46086 16 4.96957 16 5.5V16.5C16 17.0304 15.7893 17.5391 15.4142 17.9142C15.0391 18.2893 14.5304 18.5 14 18.5H6C5.46957 18.5 4.96086 18.2893 4.58579 17.9142C4.21071 17.5391 4 17.0304 4 16.5V5.5ZM7 9.5C6.73478 9.5 6.48043 9.60536 6.29289 9.79289C6.10536 9.98043 6 10.2348 6 10.5C6 10.7652 6.10536 11.0196 6.29289 11.2071C6.48043 11.3946 6.73478 11.5 7 11.5H7.01C7.27522 11.5 7.52957 11.3946 7.71711 11.2071C7.90464 11.0196 8.01 10.7652 8.01 10.5C8.01 10.2348 7.90464 9.98043 7.71711 9.79289C7.52957 9.60536 7.27522 9.5 7.01 9.5H7ZM10 9.5C9.73478 9.5 9.48043 9.60536 9.29289 9.79289C9.10536 9.98043 9 10.2348 9 10.5C9 10.7652 9.10536 11.0196 9.29289 11.2071C9.48043 11.3946 9.73478 11.5 10 11.5H13C13.2652 11.5 13.5196 11.3946 13.7071 11.2071C13.8946 11.0196 14 10.7652 14 10.5C14 10.2348 13.8946 9.98043 13.7071 9.79289C13.5196 9.60536 13.2652 9.5 13 9.5H10ZM7 13.5C6.73478 13.5 6.48043 13.6054 6.29289 13.7929C6.10536 13.9804 6 14.2348 6 14.5C6 14.7652 6.10536 15.0196 6.29289 15.2071C6.48043 15.3946 6.73478 15.5 7 15.5H7.01C7.27522 15.5 7.52957 15.3946 7.71711 15.2071C7.90464 15.0196 8.01 14.7652 8.01 14.5C8.01 14.2348 7.90464 13.9804 7.71711 13.7929C7.52957 13.6054 7.27522 13.5 7.01 13.5H7ZM10 13.5C9.73478 13.5 9.48043 13.6054 9.29289 13.7929C9.10536 13.9804 9 14.2348 9 14.5C9 14.7652 9.10536 15.0196 9.29289 15.2071C9.48043 15.3946 9.73478 15.5 10 15.5H13C13.2652 15.5 13.5196 15.3946 13.7071 15.2071C13.8946 15.0196 14 14.7652 14 14.5C14 14.2348 13.8946 13.9804 13.7071 13.7929C13.5196 13.6054 13.2652 13.5 13 13.5H10Z" fill="white"/>
</svg>
