<svg width="24" height="24" viewBox="0 0 24 24" fill="none" xmlns="http://www.w3.org/2000/svg">
<path d="M5.99998 3.6001C5.36346 3.6001 4.75301 3.85295 4.30292 4.30304C3.85283 4.75313 3.59998 5.36358 3.59998 6.0001V8.4001C3.59998 9.03662 3.85283 9.64707 4.30292 10.0972C4.75301 10.5472 5.36346 10.8001 5.99998 10.8001H8.39998C9.03649 10.8001 9.64694 10.5472 10.097 10.0972C10.5471 9.64707 10.8 9.03662 10.8 8.4001V6.0001C10.8 5.36358 10.5471 4.75313 10.097 4.30304C9.64694 3.85295 9.03649 3.6001 8.39998 3.6001H5.99998ZM5.99998 13.2001C5.36346 13.2001 4.75301 13.453 4.30292 13.903C3.85283 14.3531 3.59998 14.9636 3.59998 15.6001V18.0001C3.59998 18.6366 3.85283 19.2471 4.30292 19.6972C4.75301 20.1472 5.36346 20.4001 5.99998 20.4001H8.39998C9.03649 20.4001 9.64694 20.1472 10.097 19.6972C10.5471 19.2471 10.8 18.6366 10.8 18.0001V15.6001C10.8 14.9636 10.5471 14.3531 10.097 13.903C9.64694 13.453 9.03649 13.2001 8.39998 13.2001H5.99998ZM13.2 6.0001C13.2 5.36358 13.4528 4.75313 13.9029 4.30304C14.353 3.85295 14.9635 3.6001 15.6 3.6001H18C18.6365 3.6001 19.2469 3.85295 19.697 4.30304C20.1471 4.75313 20.4 5.36358 20.4 6.0001V8.4001C20.4 9.03662 20.1471 9.64707 19.697 10.0972C19.2469 10.5472 18.6365 10.8001 18 10.8001H15.6C14.9635 10.8001 14.353 10.5472 13.9029 10.0972C13.4528 9.64707 13.2 9.03662 13.2 8.4001V6.0001ZM13.2 15.6001C13.2 14.9636 13.4528 14.3531 13.9029 13.903C14.353 13.453 14.9635 13.2001 15.6 13.2001H18C18.6365 13.2001 19.2469 13.453 19.697 13.903C20.1471 14.3531 20.4 14.9636 20.4 15.6001V18.0001C20.4 18.6366 20.1471 19.2471 19.697 19.6972C19.2469 20.1472 18.6365 20.4001 18 20.4001H15.6C14.9635 20.4001 14.353 20.1472 13.9029 19.6972C13.4528 19.2471 13.2 18.6366 13.2 18.0001V15.6001Z" fill="#9CA3AF"/>
</svg>
